<?xml version="1.0" encoding="UTF-8" standalone="no"?><svg xmlns="http://www.w3.org/2000/svg" xmlns:xlink="http://www.w3.org/1999/xlink" contentScriptType="application/ecmascript" contentStyleType="text/css" height="586px" preserveAspectRatio="none" style="width:549px;height:586px;" version="1.1" viewBox="0 0 549 586" width="549px" zoomAndPan="magnify"><defs><filter height="300%" id="f1b684lcb7jmow" width="300%" x="-1" y="-1"><feGaussianBlur result="blurOut" stdDeviation="2.0"/><feColorMatrix in="blurOut" result="blurOut2" type="matrix" values="0 0 0 0 0 0 0 0 0 0 0 0 0 0 0 0 0 0 .4 0"/><feOffset dx="4.0" dy="4.0" in="blurOut2" result="blurOut3"/><feBlend in="SourceGraphic" in2="blurOut3" mode="normal"/></filter></defs><g><text fill="#000000" font-family="sans-serif" font-size="14" font-weight="bold" lengthAdjust="spacingAndGlyphs" textLength="124" x="213" y="24.5332">Клиентская часть</text><line style="stroke: #A80036; stroke-width: 1.0; stroke-dasharray: 5.0,5.0;" x1="63" x2="63" y1="71.2188" y2="544.4922"/><line style="stroke: #A80036; stroke-width: 1.0; stroke-dasharray: 5.0,5.0;" x1="260.5" x2="260.5" y1="71.2188" y2="544.4922"/><line style="stroke: #A80036; stroke-width: 1.0; stroke-dasharray: 5.0,5.0;" x1="508" x2="508" y1="71.2188" y2="544.4922"/><rect fill="#FEFECE" filter="url(#f1b684lcb7jmow)" height="31.6094" style="stroke: #A80036; stroke-width: 1.5;" width="107" x="8" y="34.6094"/><text fill="#000000" font-family="sans-serif" font-size="14" lengthAdjust="spacingAndGlyphs" textLength="93" x="15" y="56.1426">Пользователь</text><rect fill="#FEFECE" filter="url(#f1b684lcb7jmow)" height="31.6094" style="stroke: #A80036; stroke-width: 1.5;" width="107" x="8" y="543.4922"/><text fill="#000000" font-family="sans-serif" font-size="14" lengthAdjust="spacingAndGlyphs" textLength="93" x="15" y="565.0254">Пользователь</text><rect fill="#FEFECE" filter="url(#f1b684lcb7jmow)" height="31.6094" style="stroke: #A80036; stroke-width: 1.5;" width="68" x="224.5" y="34.6094"/><text fill="#000000" font-family="sans-serif" font-size="14" lengthAdjust="spacingAndGlyphs" textLength="54" x="231.5" y="56.1426">Браузер</text><rect fill="#FEFECE" filter="url(#f1b684lcb7jmow)" height="31.6094" style="stroke: #A80036; stroke-width: 1.5;" width="68" x="224.5" y="543.4922"/><text fill="#000000" font-family="sans-serif" font-size="14" lengthAdjust="spacingAndGlyphs" textLength="54" x="231.5" y="565.0254">Браузер</text><rect fill="#FEFECE" filter="url(#f1b684lcb7jmow)" height="31.6094" style="stroke: #A80036; stroke-width: 1.5;" width="63" x="475" y="34.6094"/><text fill="#000000" font-family="sans-serif" font-size="14" lengthAdjust="spacingAndGlyphs" textLength="49" x="482" y="56.1426">Сервер</text><rect fill="#FEFECE" filter="url(#f1b684lcb7jmow)" height="31.6094" style="stroke: #A80036; stroke-width: 1.5;" width="63" x="475" y="543.4922"/><text fill="#000000" font-family="sans-serif" font-size="14" lengthAdjust="spacingAndGlyphs" textLength="49" x="482" y="565.0254">Сервер</text><polygon fill="#A80036" points="248.5,99.5703,258.5,103.5703,248.5,107.5703,252.5,103.5703" style="stroke: #A80036; stroke-width: 1.0;"/><line style="stroke: #A80036; stroke-width: 1.0;" x1="63.5" x2="254.5" y1="103.5703" y2="103.5703"/><text fill="#000000" font-family="sans-serif" font-size="13" lengthAdjust="spacingAndGlyphs" textLength="116" x="70.5" y="98.7139">Открытие страницы</text><polygon fill="#A80036" points="496.5,129.9219,506.5,133.9219,496.5,137.9219,500.5,133.9219" style="stroke: #A80036; stroke-width: 1.0;"/><line style="stroke: #A80036; stroke-width: 1.0;" x1="260.5" x2="502.5" y1="133.9219" y2="133.9219"/><text fill="#000000" font-family="sans-serif" font-size="13" lengthAdjust="spacingAndGlyphs" textLength="182" x="267.5" y="129.0654">GET запрос главной страницы</text><polygon fill="#A80036" points="271.5,160.2734,261.5,164.2734,271.5,168.2734,267.5,164.2734" style="stroke: #A80036; stroke-width: 1.0;"/><line style="stroke: #A80036; stroke-width: 1.0;" x1="265.5" x2="507.5" y1="164.2734" y2="164.2734"/><text fill="#000000" font-family="sans-serif" font-size="13" lengthAdjust="spacingAndGlyphs" textLength="60" x="277.5" y="159.417">index.html</text><polygon fill="#A80036" points="74.5,190.625,64.5,194.625,74.5,198.625,70.5,194.625" style="stroke: #A80036; stroke-width: 1.0;"/><line style="stroke: #A80036; stroke-width: 1.0;" x1="68.5" x2="259.5" y1="194.625" y2="194.625"/><text fill="#000000" font-family="sans-serif" font-size="13" lengthAdjust="spacingAndGlyphs" textLength="137" x="80.5" y="189.7686">Отрисовка интерфейса</text><polygon fill="#A80036" points="248.5,220.9766,258.5,224.9766,248.5,228.9766,252.5,224.9766" style="stroke: #A80036; stroke-width: 1.0;"/><line style="stroke: #A80036; stroke-width: 1.0;" x1="63.5" x2="254.5" y1="224.9766" y2="224.9766"/><text fill="#000000" font-family="sans-serif" font-size="13" lengthAdjust="spacingAndGlyphs" textLength="173" x="70.5" y="220.1201">Выбор файла для просмотра</text><polygon fill="#A80036" points="496.5,251.3281,506.5,255.3281,496.5,259.3281,500.5,255.3281" style="stroke: #A80036; stroke-width: 1.0;"/><line style="stroke: #A80036; stroke-width: 1.0;" x1="260.5" x2="502.5" y1="255.3281" y2="255.3281"/><text fill="#000000" font-family="sans-serif" font-size="13" lengthAdjust="spacingAndGlyphs" textLength="94" x="267.5" y="250.4717">Загрузка файла</text><polygon fill="#A80036" points="271.5,281.6797,261.5,285.6797,271.5,289.6797,267.5,285.6797" style="stroke: #A80036; stroke-width: 1.0;"/><line style="stroke: #A80036; stroke-width: 1.0;" x1="265.5" x2="507.5" y1="285.6797" y2="285.6797"/><text fill="#000000" font-family="sans-serif" font-size="13" lengthAdjust="spacingAndGlyphs" textLength="53" x="277.5" y="280.8232">ID файла</text><polygon fill="#A80036" points="248.5,328.3828,258.5,332.3828,248.5,336.3828,252.5,332.3828" style="stroke: #A80036; stroke-width: 1.0;"/><line style="stroke: #A80036; stroke-width: 1.0;" x1="63.5" x2="254.5" y1="332.3828" y2="332.3828"/><text fill="#000000" font-family="sans-serif" font-size="13" lengthAdjust="spacingAndGlyphs" textLength="61" x="70.5" y="311.1748">Установка</text><text fill="#000000" font-family="sans-serif" font-size="13" lengthAdjust="spacingAndGlyphs" textLength="143" x="70.5" y="327.5264">параметров рендеринга</text><line style="stroke: #A80036; stroke-width: 1.0;" x1="260.5" x2="302.5" y1="362.7344" y2="362.7344"/><line style="stroke: #A80036; stroke-width: 1.0;" x1="302.5" x2="302.5" y1="362.7344" y2="375.7344"/><line style="stroke: #A80036; stroke-width: 1.0;" x1="261.5" x2="302.5" y1="375.7344" y2="375.7344"/><polygon fill="#A80036" points="271.5,371.7344,261.5,375.7344,271.5,379.7344,267.5,375.7344" style="stroke: #A80036; stroke-width: 1.0;"/><text fill="#000000" font-family="sans-serif" font-size="13" lengthAdjust="spacingAndGlyphs" textLength="200" x="267.5" y="357.8779">Считывание параметров рендера</text><line style="stroke: #A80036; stroke-width: 1.0;" x1="260.5" x2="302.5" y1="422.4375" y2="422.4375"/><line style="stroke: #A80036; stroke-width: 1.0;" x1="302.5" x2="302.5" y1="422.4375" y2="435.4375"/><line style="stroke: #A80036; stroke-width: 1.0;" x1="261.5" x2="302.5" y1="435.4375" y2="435.4375"/><polygon fill="#A80036" points="271.5,431.4375,261.5,435.4375,271.5,439.4375,267.5,435.4375" style="stroke: #A80036; stroke-width: 1.0;"/><text fill="#000000" font-family="sans-serif" font-size="13" lengthAdjust="spacingAndGlyphs" textLength="220" x="267.5" y="401.2295">Генерирование адреса изображения</text><text fill="#000000" font-family="sans-serif" font-size="13" lengthAdjust="spacingAndGlyphs" textLength="131" x="267.5" y="417.5811">отрисованной модели</text><polygon fill="#A80036" points="496.5,461.7891,506.5,465.7891,496.5,469.7891,500.5,465.7891" style="stroke: #A80036; stroke-width: 1.0;"/><line style="stroke: #A80036; stroke-width: 1.0;" x1="260.5" x2="502.5" y1="465.7891" y2="465.7891"/><text fill="#000000" font-family="sans-serif" font-size="13" lengthAdjust="spacingAndGlyphs" textLength="213" x="267.5" y="460.9326">Запрос изображения /render.php?...</text><polygon fill="#A80036" points="271.5,492.1406,261.5,496.1406,271.5,500.1406,267.5,496.1406" style="stroke: #A80036; stroke-width: 1.0;"/><line style="stroke: #A80036; stroke-width: 1.0;" x1="265.5" x2="507.5" y1="496.1406" y2="496.1406"/><text fill="#000000" font-family="sans-serif" font-size="13" lengthAdjust="spacingAndGlyphs" textLength="224" x="277.5" y="491.2842">Изображение модели в формате .png</text><polygon fill="#A80036" points="74.5,522.4922,64.5,526.4922,74.5,530.4922,70.5,526.4922" style="stroke: #A80036; stroke-width: 1.0;"/><line style="stroke: #A80036; stroke-width: 1.0;" x1="68.5" x2="259.5" y1="526.4922" y2="526.4922"/><text fill="#000000" font-family="sans-serif" font-size="13" lengthAdjust="spacingAndGlyphs" textLength="122" x="80.5" y="521.6357">Вывод изображения</text><!--
@startuml
title Клиентская часть
Пользователь -> Браузер: Открытие страницы
Браузер -> Сервер: GET запрос главной страницы
Сервер -> Браузер: index.html
Браузер -> Пользователь: Отрисовка интерфейса
Пользователь -> Браузер: Выбор файла для просмотра
Браузер -> Сервер: Загрузка файла
Сервер -> Браузер: ID файла
Пользователь -> Браузер: Установка\nпараметров рендеринга
Браузер -> Браузер: Считывание параметров рендера
Браузер -> Браузер: Генерирование адреса изображения\nотрисованной модели
Браузер -> Сервер: Запрос изображения /render.php?...
Сервер -> Браузер: Изображение модели в формате .png
Браузер -> Пользователь: Вывод изображения
@enduml

PlantUML version 1.2018.03(Thu Apr 05 19:59:15 MSK 2018)
(GPL source distribution)
Java Runtime: Java(TM) SE Runtime Environment
JVM: Java HotSpot(TM) Client VM
Java Version: 1.8.0_171-b11
Operating System: Windows 10
OS Version: 10.0
Default Encoding: Cp1251
Language: ru
Country: RU
--></g></svg>