<?xml version="1.0" encoding="UTF-8" standalone="no"?><svg xmlns="http://www.w3.org/2000/svg" xmlns:xlink="http://www.w3.org/1999/xlink" contentScriptType="application/ecmascript" contentStyleType="text/css" height="979px" preserveAspectRatio="none" style="width:929px;height:979px;" version="1.1" viewBox="0 0 929 979" width="929px" zoomAndPan="magnify"><defs><filter height="300%" id="f1ux40kwko7lbv" width="300%" x="-1" y="-1"><feGaussianBlur result="blurOut" stdDeviation="2.0"/><feColorMatrix in="blurOut" result="blurOut2" type="matrix" values="0 0 0 0 0 0 0 0 0 0 0 0 0 0 0 0 0 0 .4 0"/><feOffset dx="4.0" dy="4.0" in="blurOut2" result="blurOut3"/><feBlend in="SourceGraphic" in2="blurOut3" mode="normal"/></filter></defs><g><text fill="#000000" font-family="sans-serif" font-size="14" font-weight="bold" lengthAdjust="spacingAndGlyphs" textLength="136" x="397" y="24.5332">"Серверная часть"</text><line style="stroke: #A80036; stroke-width: 1.0; stroke-dasharray: 5.0,5.0;" x1="44" x2="44" y1="71.2188" y2="937.4141"/><line style="stroke: #A80036; stroke-width: 1.0; stroke-dasharray: 5.0,5.0;" x1="193" x2="193" y1="71.2188" y2="937.4141"/><line style="stroke: #A80036; stroke-width: 1.0; stroke-dasharray: 5.0,5.0;" x1="350" x2="350" y1="71.2188" y2="937.4141"/><line style="stroke: #A80036; stroke-width: 1.0; stroke-dasharray: 5.0,5.0;" x1="575" x2="575" y1="71.2188" y2="937.4141"/><line style="stroke: #A80036; stroke-width: 1.0; stroke-dasharray: 5.0,5.0;" x1="762.5" x2="762.5" y1="71.2188" y2="937.4141"/><line style="stroke: #A80036; stroke-width: 1.0; stroke-dasharray: 5.0,5.0;" x1="890" x2="890" y1="71.2188" y2="937.4141"/><rect fill="#FEFECE" filter="url(#f1ux40kwko7lbv)" height="31.6094" style="stroke: #A80036; stroke-width: 1.5;" width="68" x="8" y="34.6094"/><text fill="#000000" font-family="sans-serif" font-size="14" lengthAdjust="spacingAndGlyphs" textLength="54" x="15" y="56.1426">Браузер</text><rect fill="#FEFECE" filter="url(#f1ux40kwko7lbv)" height="31.6094" style="stroke: #A80036; stroke-width: 1.5;" width="68" x="8" y="936.4141"/><text fill="#000000" font-family="sans-serif" font-size="14" lengthAdjust="spacingAndGlyphs" textLength="54" x="15" y="957.9473">Браузер</text><rect fill="#FEFECE" filter="url(#f1ux40kwko7lbv)" height="31.6094" style="stroke: #A80036; stroke-width: 1.5;" width="90" x="146" y="34.6094"/><text fill="#000000" font-family="sans-serif" font-size="14" lengthAdjust="spacingAndGlyphs" textLength="76" x="153" y="56.1426">web-сервер</text><rect fill="#FEFECE" filter="url(#f1ux40kwko7lbv)" height="31.6094" style="stroke: #A80036; stroke-width: 1.5;" width="90" x="146" y="936.4141"/><text fill="#000000" font-family="sans-serif" font-size="14" lengthAdjust="spacingAndGlyphs" textLength="76" x="153" y="957.9473">web-сервер</text><rect fill="#FEFECE" filter="url(#f1ux40kwko7lbv)" height="31.6094" style="stroke: #A80036; stroke-width: 1.5;" width="84" x="306" y="34.6094"/><text fill="#000000" font-family="sans-serif" font-size="14" lengthAdjust="spacingAndGlyphs" textLength="70" x="313" y="56.1426">render.php</text><rect fill="#FEFECE" filter="url(#f1ux40kwko7lbv)" height="31.6094" style="stroke: #A80036; stroke-width: 1.5;" width="84" x="306" y="936.4141"/><text fill="#000000" font-family="sans-serif" font-size="14" lengthAdjust="spacingAndGlyphs" textLength="70" x="313" y="957.9473">render.php</text><rect fill="#FEFECE" filter="url(#f1ux40kwko7lbv)" height="31.6094" style="stroke: #A80036; stroke-width: 1.5;" width="102" x="522" y="34.6094"/><text fill="#000000" font-family="sans-serif" font-size="14" lengthAdjust="spacingAndGlyphs" textLength="88" x="529" y="56.1426">Renderer.php</text><rect fill="#FEFECE" filter="url(#f1ux40kwko7lbv)" height="31.6094" style="stroke: #A80036; stroke-width: 1.5;" width="102" x="522" y="936.4141"/><text fill="#000000" font-family="sans-serif" font-size="14" lengthAdjust="spacingAndGlyphs" textLength="88" x="529" y="957.9473">Renderer.php</text><rect fill="#FEFECE" filter="url(#f1ux40kwko7lbv)" height="31.6094" style="stroke: #A80036; stroke-width: 1.5;" width="85" x="718.5" y="34.6094"/><text fill="#000000" font-family="sans-serif" font-size="14" lengthAdjust="spacingAndGlyphs" textLength="71" x="725.5" y="56.1426">upload.php</text><rect fill="#FEFECE" filter="url(#f1ux40kwko7lbv)" height="31.6094" style="stroke: #A80036; stroke-width: 1.5;" width="85" x="718.5" y="936.4141"/><text fill="#000000" font-family="sans-serif" font-size="14" lengthAdjust="spacingAndGlyphs" textLength="71" x="725.5" y="957.9473">upload.php</text><rect fill="#FEFECE" filter="url(#f1ux40kwko7lbv)" height="31.6094" style="stroke: #A80036; stroke-width: 1.5;" width="60" x="858" y="34.6094"/><text fill="#000000" font-family="sans-serif" font-size="14" lengthAdjust="spacingAndGlyphs" textLength="46" x="865" y="56.1426">MySQL</text><rect fill="#FEFECE" filter="url(#f1ux40kwko7lbv)" height="31.6094" style="stroke: #A80036; stroke-width: 1.5;" width="60" x="858" y="936.4141"/><text fill="#000000" font-family="sans-serif" font-size="14" lengthAdjust="spacingAndGlyphs" textLength="46" x="865" y="957.9473">MySQL</text><polygon fill="#A80036" points="181,115.9219,191,119.9219,181,123.9219,185,119.9219" style="stroke: #A80036; stroke-width: 1.0;"/><line style="stroke: #A80036; stroke-width: 1.0;" x1="44" x2="187" y1="119.9219" y2="119.9219"/><text fill="#000000" font-family="sans-serif" font-size="13" lengthAdjust="spacingAndGlyphs" textLength="71" x="51" y="98.7139">GET запрос</text><text fill="#000000" font-family="sans-serif" font-size="13" lengthAdjust="spacingAndGlyphs" textLength="107" x="51" y="115.0654">главной страницы</text><polygon fill="#A80036" points="55,146.2734,45,150.2734,55,154.2734,51,150.2734" style="stroke: #A80036; stroke-width: 1.0;"/><line style="stroke: #A80036; stroke-width: 1.0;" x1="49" x2="192" y1="150.2734" y2="150.2734"/><text fill="#000000" font-family="sans-serif" font-size="13" lengthAdjust="spacingAndGlyphs" textLength="60" x="61" y="145.417">index.html</text><polygon fill="#A80036" points="181,176.625,191,180.625,181,184.625,185,180.625" style="stroke: #A80036; stroke-width: 1.0;"/><line style="stroke: #A80036; stroke-width: 1.0;" x1="44" x2="187" y1="180.625" y2="180.625"/><text fill="#000000" font-family="sans-serif" font-size="13" lengthAdjust="spacingAndGlyphs" textLength="94" x="51" y="175.7686">Загрузка файла</text><polygon fill="#A80036" points="751,206.9766,761,210.9766,751,214.9766,755,210.9766" style="stroke: #A80036; stroke-width: 1.0;"/><line style="stroke: #A80036; stroke-width: 1.0;" x1="193" x2="757" y1="210.9766" y2="210.9766"/><text fill="#000000" font-family="sans-serif" font-size="13" lengthAdjust="spacingAndGlyphs" textLength="55" x="200" y="206.1201">.obj файл</text><line style="stroke: #A80036; stroke-width: 1.0;" x1="763" x2="805" y1="257.6797" y2="257.6797"/><line style="stroke: #A80036; stroke-width: 1.0;" x1="805" x2="805" y1="257.6797" y2="270.6797"/><line style="stroke: #A80036; stroke-width: 1.0;" x1="764" x2="805" y1="270.6797" y2="270.6797"/><polygon fill="#A80036" points="774,266.6797,764,270.6797,774,274.6797,770,270.6797" style="stroke: #A80036; stroke-width: 1.0;"/><text fill="#000000" font-family="sans-serif" font-size="13" lengthAdjust="spacingAndGlyphs" textLength="113" x="770" y="236.4717">Сохранение файла</text><text fill="#000000" font-family="sans-serif" font-size="13" lengthAdjust="spacingAndGlyphs" textLength="53" x="770" y="252.8232">на диске</text><polygon fill="#A80036" points="878,313.3828,888,317.3828,878,321.3828,882,317.3828" style="stroke: #A80036; stroke-width: 1.0;"/><line style="stroke: #A80036; stroke-width: 1.0;" x1="763" x2="884" y1="317.3828" y2="317.3828"/><text fill="#000000" font-family="sans-serif" font-size="13" lengthAdjust="spacingAndGlyphs" textLength="103" x="770" y="296.1748">Создание записи</text><text fill="#000000" font-family="sans-serif" font-size="13" lengthAdjust="spacingAndGlyphs" textLength="89" x="770" y="312.5264">о новом файле</text><polygon fill="#A80036" points="774,343.7344,764,347.7344,774,351.7344,770,347.7344" style="stroke: #A80036; stroke-width: 1.0;"/><line style="stroke: #A80036; stroke-width: 1.0;" x1="768" x2="889" y1="347.7344" y2="347.7344"/><text fill="#000000" font-family="sans-serif" font-size="13" lengthAdjust="spacingAndGlyphs" textLength="53" x="780" y="342.8779">ID файла</text><polygon fill="#A80036" points="204,374.0859,194,378.0859,204,382.0859,200,378.0859" style="stroke: #A80036; stroke-width: 1.0;"/><line style="stroke: #A80036; stroke-width: 1.0;" x1="198" x2="762" y1="378.0859" y2="378.0859"/><text fill="#000000" font-family="sans-serif" font-size="13" lengthAdjust="spacingAndGlyphs" textLength="53" x="210" y="373.2295">ID файла</text><polygon fill="#A80036" points="55,404.4375,45,408.4375,55,412.4375,51,408.4375" style="stroke: #A80036; stroke-width: 1.0;"/><line style="stroke: #A80036; stroke-width: 1.0;" x1="49" x2="192" y1="408.4375" y2="408.4375"/><text fill="#000000" font-family="sans-serif" font-size="13" lengthAdjust="spacingAndGlyphs" textLength="53" x="61" y="403.5811">ID файла</text><polygon fill="#A80036" points="181,451.1406,191,455.1406,181,459.1406,185,455.1406" style="stroke: #A80036; stroke-width: 1.0;"/><line style="stroke: #A80036; stroke-width: 1.0;" x1="44" x2="187" y1="455.1406" y2="455.1406"/><text fill="#000000" font-family="sans-serif" font-size="13" lengthAdjust="spacingAndGlyphs" textLength="125" x="51" y="433.9326">Запрос изображения</text><text fill="#000000" font-family="sans-serif" font-size="13" lengthAdjust="spacingAndGlyphs" textLength="84" x="51" y="450.2842">/render.php?...</text><polygon fill="#A80036" points="338,497.8438,348,501.8438,338,505.8438,342,501.8438" style="stroke: #A80036; stroke-width: 1.0;"/><line style="stroke: #A80036; stroke-width: 1.0;" x1="193" x2="344" y1="501.8438" y2="501.8438"/><text fill="#000000" font-family="sans-serif" font-size="13" lengthAdjust="spacingAndGlyphs" textLength="133" x="200" y="480.6357">Передача параметров</text><text fill="#000000" font-family="sans-serif" font-size="13" lengthAdjust="spacingAndGlyphs" textLength="69" x="200" y="496.9873">рендеринга</text><polygon fill="#A80036" points="878,528.1953,888,532.1953,878,536.1953,882,532.1953" style="stroke: #A80036; stroke-width: 1.0;"/><line style="stroke: #A80036; stroke-width: 1.0;" x1="350" x2="884" y1="532.1953" y2="532.1953"/><text fill="#000000" font-family="sans-serif" font-size="13" lengthAdjust="spacingAndGlyphs" textLength="195" x="357" y="527.3389">Поиск имени файла по id записи</text><polygon fill="#A80036" points="361,558.5469,351,562.5469,361,566.5469,357,562.5469" style="stroke: #A80036; stroke-width: 1.0;"/><line style="stroke: #A80036; stroke-width: 1.0;" x1="355" x2="889" y1="562.5469" y2="562.5469"/><text fill="#000000" font-family="sans-serif" font-size="13" lengthAdjust="spacingAndGlyphs" textLength="66" x="367" y="557.6904">Имя файла</text><polygon fill="#A80036" points="563,605.25,573,609.25,563,613.25,567,609.25" style="stroke: #A80036; stroke-width: 1.0;"/><line style="stroke: #A80036; stroke-width: 1.0;" x1="350" x2="569" y1="609.25" y2="609.25"/><text fill="#000000" font-family="sans-serif" font-size="13" lengthAdjust="spacingAndGlyphs" textLength="201" x="357" y="588.042">Передача параметров отрисовки,</text><text fill="#000000" font-family="sans-serif" font-size="13" lengthAdjust="spacingAndGlyphs" textLength="133" x="361" y="604.3936">имени файла и холста</text><line style="stroke: #A80036; stroke-width: 1.0;" x1="575" x2="617" y1="639.6016" y2="639.6016"/><line style="stroke: #A80036; stroke-width: 1.0;" x1="617" x2="617" y1="639.6016" y2="652.6016"/><line style="stroke: #A80036; stroke-width: 1.0;" x1="576" x2="617" y1="652.6016" y2="652.6016"/><polygon fill="#A80036" points="586,648.6016,576,652.6016,586,656.6016,582,652.6016" style="stroke: #A80036; stroke-width: 1.0;"/><text fill="#000000" font-family="sans-serif" font-size="13" lengthAdjust="spacingAndGlyphs" textLength="113" x="582" y="634.7451">Считывание файла</text><line style="stroke: #A80036; stroke-width: 1.0;" x1="575" x2="617" y1="682.9531" y2="682.9531"/><line style="stroke: #A80036; stroke-width: 1.0;" x1="617" x2="617" y1="682.9531" y2="695.9531"/><line style="stroke: #A80036; stroke-width: 1.0;" x1="576" x2="617" y1="695.9531" y2="695.9531"/><polygon fill="#A80036" points="586,691.9531,576,695.9531,586,699.9531,582,695.9531" style="stroke: #A80036; stroke-width: 1.0;"/><text fill="#000000" font-family="sans-serif" font-size="13" lengthAdjust="spacingAndGlyphs" textLength="90" x="582" y="678.0967">Парсинг файла</text><line style="stroke: #A80036; stroke-width: 1.0;" x1="575" x2="617" y1="742.6563" y2="742.6563"/><line style="stroke: #A80036; stroke-width: 1.0;" x1="617" x2="617" y1="742.6563" y2="755.6563"/><line style="stroke: #A80036; stroke-width: 1.0;" x1="576" x2="617" y1="755.6563" y2="755.6563"/><polygon fill="#A80036" points="586,751.6563,576,755.6563,586,759.6563,582,755.6563" style="stroke: #A80036; stroke-width: 1.0;"/><text fill="#000000" font-family="sans-serif" font-size="13" lengthAdjust="spacingAndGlyphs" textLength="163" x="582" y="721.4482">Преобразования на основе</text><text fill="#000000" font-family="sans-serif" font-size="13" lengthAdjust="spacingAndGlyphs" textLength="147" x="582" y="737.7998">переданных параметров</text><line style="stroke: #A80036; stroke-width: 1.0;" x1="575" x2="617" y1="786.0078" y2="786.0078"/><line style="stroke: #A80036; stroke-width: 1.0;" x1="617" x2="617" y1="786.0078" y2="799.0078"/><line style="stroke: #A80036; stroke-width: 1.0;" x1="576" x2="617" y1="799.0078" y2="799.0078"/><polygon fill="#A80036" points="586,795.0078,576,799.0078,586,803.0078,582,799.0078" style="stroke: #A80036; stroke-width: 1.0;"/><text fill="#000000" font-family="sans-serif" font-size="13" lengthAdjust="spacingAndGlyphs" textLength="174" x="582" y="781.1514">Отрисовка модели на холсте</text><line style="stroke: #A80036; stroke-width: 1.0;" x1="350" x2="392" y1="845.7109" y2="845.7109"/><line style="stroke: #A80036; stroke-width: 1.0;" x1="392" x2="392" y1="845.7109" y2="858.7109"/><line style="stroke: #A80036; stroke-width: 1.0;" x1="351" x2="392" y1="858.7109" y2="858.7109"/><polygon fill="#A80036" points="361,854.7109,351,858.7109,361,862.7109,357,858.7109" style="stroke: #A80036; stroke-width: 1.0;"/><text fill="#000000" font-family="sans-serif" font-size="13" lengthAdjust="spacingAndGlyphs" textLength="161" x="357" y="824.5029">Кодирование изображения</text><text fill="#000000" font-family="sans-serif" font-size="13" lengthAdjust="spacingAndGlyphs" textLength="94" x="357" y="840.8545">на холсте в png</text><polygon fill="#A80036" points="204,885.0625,194,889.0625,204,893.0625,200,889.0625" style="stroke: #A80036; stroke-width: 1.0;"/><line style="stroke: #A80036; stroke-width: 1.0;" x1="198" x2="349" y1="889.0625" y2="889.0625"/><text fill="#000000" font-family="sans-serif" font-size="13" lengthAdjust="spacingAndGlyphs" textLength="80" x="210" y="884.2061">Изображение</text><polygon fill="#A80036" points="55,915.4141,45,919.4141,55,923.4141,51,919.4141" style="stroke: #A80036; stroke-width: 1.0;"/><line style="stroke: #A80036; stroke-width: 1.0;" x1="49" x2="192" y1="919.4141" y2="919.4141"/><text fill="#000000" font-family="sans-serif" font-size="13" lengthAdjust="spacingAndGlyphs" textLength="80" x="61" y="914.5576">Изображение</text><!--
@startuml
title "Серверная часть"
participant Браузер
participant "web-сервер"
participant "render.php"
participant "Renderer.php"
Браузер -> "web-сервер": GET запрос\nглавной страницы
"web-сервер" -> Браузер: index.html
Браузер -> "web-сервер": Загрузка файла
"web-сервер" -> upload.php: .obj файл
upload.php -> upload.php: Сохранение файла\nна диске
upload.php -> MySQL: Создание записи\nо новом файле
MySQL -> upload.php: ID файла
upload.php -> "web-сервер": ID файла
"web-сервер" -> Браузер: ID файла
Браузер -> "web-сервер": Запрос изображения\n/render.php?...
"web-сервер" -> "render.php": Передача параметров\nрендеринга
"render.php" -> MySQL: Поиск имени файла по id записи
MySQL -> "render.php": Имя файла
"render.php"->"Renderer.php": Передача параметров отрисовки,\n имени файла и холста
"Renderer.php"->"Renderer.php": Считывание файла
"Renderer.php"->"Renderer.php": Парсинг файла
"Renderer.php"->"Renderer.php": Преобразования на основе\nпереданных параметров
"Renderer.php"->"Renderer.php": Отрисовка модели на холсте
"render.php"->"render.php": Кодирование изображения\nна холсте в png
"render.php"->"web-сервер": Изображение
"web-сервер"->Браузер: Изображение
@enduml

PlantUML version 1.2018.03(Thu Apr 05 19:59:15 MSK 2018)
(GPL source distribution)
Java Runtime: Java(TM) SE Runtime Environment
JVM: Java HotSpot(TM) Client VM
Java Version: 1.8.0_171-b11
Operating System: Windows 10
OS Version: 10.0
Default Encoding: Cp1251
Language: ru
Country: RU
--></g></svg>